<mxfile host="app.diagrams.net" modified="2024-05-19T16:05:11.309Z" agent="Mozilla/5.0 (Windows NT 10.0; Win64; x64) AppleWebKit/537.36 (KHTML, like Gecko) Chrome/124.0.0.0 Safari/537.36" etag="u_sKCvKqgqi_7btVhqQS" version="24.4.4" type="github">
  <diagram name="第 1 页" id="LxelXvVXPiTQqQ4sb4Tv">
    <mxGraphModel dx="1076" dy="818" grid="1" gridSize="10" guides="1" tooltips="1" connect="1" arrows="1" fold="1" page="1" pageScale="1" pageWidth="827" pageHeight="1169" math="0" shadow="0">
      <root>
        <mxCell id="0" />
        <mxCell id="1" parent="0" />
        <mxCell id="H5An6maERPsgCziN6ppM-3" style="edgeStyle=none;rounded=0;orthogonalLoop=1;jettySize=auto;html=1;entryX=0.5;entryY=0;entryDx=0;entryDy=0;strokeColor=default;align=center;verticalAlign=middle;fontFamily=Helvetica;fontSize=11;fontColor=default;labelBackgroundColor=default;endArrow=none;endFill=0;" parent="1" source="H5An6maERPsgCziN6ppM-6" target="H5An6maERPsgCziN6ppM-20" edge="1">
          <mxGeometry relative="1" as="geometry" />
        </mxCell>
        <mxCell id="H5An6maERPsgCziN6ppM-4" style="edgeStyle=none;rounded=0;orthogonalLoop=1;jettySize=auto;html=1;entryX=0.5;entryY=0;entryDx=0;entryDy=0;strokeColor=default;align=center;verticalAlign=middle;fontFamily=Helvetica;fontSize=11;fontColor=default;labelBackgroundColor=default;endArrow=none;endFill=0;" parent="1" source="H5An6maERPsgCziN6ppM-6" target="H5An6maERPsgCziN6ppM-22" edge="1">
          <mxGeometry relative="1" as="geometry" />
        </mxCell>
        <mxCell id="H5An6maERPsgCziN6ppM-5" style="edgeStyle=none;rounded=0;orthogonalLoop=1;jettySize=auto;html=1;entryX=0;entryY=0.5;entryDx=0;entryDy=0;strokeColor=default;align=center;verticalAlign=middle;fontFamily=Helvetica;fontSize=11;fontColor=default;labelBackgroundColor=default;endArrow=none;endFill=0;" parent="1" source="H5An6maERPsgCziN6ppM-6" target="H5An6maERPsgCziN6ppM-17" edge="1">
          <mxGeometry relative="1" as="geometry" />
        </mxCell>
        <mxCell id="H5An6maERPsgCziN6ppM-6" value="2" style="ellipse;whiteSpace=wrap;html=1;aspect=fixed;fillColor=default;" parent="1" vertex="1">
          <mxGeometry x="406.25" y="1040" width="15" height="15" as="geometry" />
        </mxCell>
        <mxCell id="H5An6maERPsgCziN6ppM-7" style="edgeStyle=none;rounded=0;orthogonalLoop=1;jettySize=auto;html=1;entryX=1;entryY=0;entryDx=0;entryDy=0;strokeColor=default;align=center;verticalAlign=middle;fontFamily=Helvetica;fontSize=11;fontColor=default;labelBackgroundColor=default;endArrow=none;endFill=0;" parent="1" source="H5An6maERPsgCziN6ppM-9" target="H5An6maERPsgCziN6ppM-6" edge="1">
          <mxGeometry relative="1" as="geometry" />
        </mxCell>
        <mxCell id="H5An6maERPsgCziN6ppM-8" style="edgeStyle=none;rounded=0;orthogonalLoop=1;jettySize=auto;html=1;entryX=0.5;entryY=0;entryDx=0;entryDy=0;strokeColor=default;align=center;verticalAlign=middle;fontFamily=Helvetica;fontSize=11;fontColor=default;labelBackgroundColor=default;endArrow=none;endFill=0;" parent="1" source="H5An6maERPsgCziN6ppM-9" target="H5An6maERPsgCziN6ppM-14" edge="1">
          <mxGeometry relative="1" as="geometry" />
        </mxCell>
        <mxCell id="H5An6maERPsgCziN6ppM-9" value="4" style="ellipse;whiteSpace=wrap;html=1;aspect=fixed;" parent="1" vertex="1">
          <mxGeometry x="431.25" y="1010" width="15" height="15" as="geometry" />
        </mxCell>
        <mxCell id="H5An6maERPsgCziN6ppM-10" style="edgeStyle=none;rounded=0;orthogonalLoop=1;jettySize=auto;html=1;strokeColor=default;align=center;verticalAlign=middle;fontFamily=Helvetica;fontSize=11;fontColor=default;labelBackgroundColor=default;endArrow=none;endFill=0;" parent="1" source="H5An6maERPsgCziN6ppM-14" target="H5An6maERPsgCziN6ppM-17" edge="1">
          <mxGeometry relative="1" as="geometry" />
        </mxCell>
        <mxCell id="H5An6maERPsgCziN6ppM-11" style="edgeStyle=none;rounded=0;orthogonalLoop=1;jettySize=auto;html=1;entryX=0.5;entryY=0;entryDx=0;entryDy=0;strokeColor=default;align=center;verticalAlign=middle;fontFamily=Helvetica;fontSize=11;fontColor=default;labelBackgroundColor=default;endArrow=none;endFill=0;" parent="1" source="H5An6maERPsgCziN6ppM-14" target="H5An6maERPsgCziN6ppM-23" edge="1">
          <mxGeometry relative="1" as="geometry" />
        </mxCell>
        <mxCell id="H5An6maERPsgCziN6ppM-12" style="edgeStyle=none;rounded=0;orthogonalLoop=1;jettySize=auto;html=1;entryX=0;entryY=1;entryDx=0;entryDy=0;strokeColor=default;align=center;verticalAlign=middle;fontFamily=Helvetica;fontSize=11;fontColor=default;labelBackgroundColor=default;endArrow=none;endFill=0;" parent="1" source="H5An6maERPsgCziN6ppM-14" target="H5An6maERPsgCziN6ppM-24" edge="1">
          <mxGeometry relative="1" as="geometry" />
        </mxCell>
        <mxCell id="H5An6maERPsgCziN6ppM-13" style="edgeStyle=none;rounded=0;orthogonalLoop=1;jettySize=auto;html=1;entryX=1;entryY=0;entryDx=0;entryDy=0;strokeColor=default;align=center;verticalAlign=middle;fontFamily=Helvetica;fontSize=11;fontColor=default;labelBackgroundColor=default;endArrow=none;endFill=0;" parent="1" source="H5An6maERPsgCziN6ppM-14" target="H5An6maERPsgCziN6ppM-22" edge="1">
          <mxGeometry relative="1" as="geometry" />
        </mxCell>
        <mxCell id="H5An6maERPsgCziN6ppM-14" value="7" style="ellipse;whiteSpace=wrap;html=1;aspect=fixed;" parent="1" vertex="1">
          <mxGeometry x="466.25" y="1025" width="15" height="15" as="geometry" />
        </mxCell>
        <mxCell id="H5An6maERPsgCziN6ppM-15" style="edgeStyle=none;rounded=0;orthogonalLoop=1;jettySize=auto;html=1;entryX=1;entryY=0;entryDx=0;entryDy=0;strokeColor=default;align=center;verticalAlign=middle;fontFamily=Helvetica;fontSize=11;fontColor=default;labelBackgroundColor=default;endArrow=none;endFill=0;" parent="1" source="H5An6maERPsgCziN6ppM-17" target="H5An6maERPsgCziN6ppM-22" edge="1">
          <mxGeometry relative="1" as="geometry" />
        </mxCell>
        <mxCell id="H5An6maERPsgCziN6ppM-16" style="edgeStyle=none;rounded=0;orthogonalLoop=1;jettySize=auto;html=1;entryX=0;entryY=0;entryDx=0;entryDy=0;strokeColor=default;align=center;verticalAlign=middle;fontFamily=Helvetica;fontSize=11;fontColor=default;labelBackgroundColor=default;endArrow=none;endFill=0;" parent="1" source="H5An6maERPsgCziN6ppM-17" target="H5An6maERPsgCziN6ppM-23" edge="1">
          <mxGeometry relative="1" as="geometry" />
        </mxCell>
        <mxCell id="H5An6maERPsgCziN6ppM-17" value="5" style="ellipse;whiteSpace=wrap;html=1;aspect=fixed;" parent="1" vertex="1">
          <mxGeometry x="436.25" y="1040" width="15" height="15" as="geometry" />
        </mxCell>
        <mxCell id="H5An6maERPsgCziN6ppM-18" style="edgeStyle=none;rounded=0;orthogonalLoop=1;jettySize=auto;html=1;strokeColor=default;align=center;verticalAlign=middle;fontFamily=Helvetica;fontSize=11;fontColor=default;labelBackgroundColor=default;endArrow=none;endFill=0;" parent="1" source="H5An6maERPsgCziN6ppM-19" target="H5An6maERPsgCziN6ppM-6" edge="1">
          <mxGeometry relative="1" as="geometry" />
        </mxCell>
        <mxCell id="H5An6maERPsgCziN6ppM-19" value="1" style="ellipse;whiteSpace=wrap;html=1;aspect=fixed;" parent="1" vertex="1">
          <mxGeometry x="391.25" y="1010" width="15" height="15" as="geometry" />
        </mxCell>
        <mxCell id="H5An6maERPsgCziN6ppM-20" value="3" style="ellipse;whiteSpace=wrap;html=1;aspect=fixed;" parent="1" vertex="1">
          <mxGeometry x="386.25" y="1065" width="15" height="15" as="geometry" />
        </mxCell>
        <mxCell id="H5An6maERPsgCziN6ppM-21" style="edgeStyle=none;rounded=0;orthogonalLoop=1;jettySize=auto;html=1;entryX=0;entryY=0.5;entryDx=0;entryDy=0;strokeColor=default;align=center;verticalAlign=middle;fontFamily=Helvetica;fontSize=11;fontColor=default;labelBackgroundColor=default;endArrow=none;endFill=0;" parent="1" source="H5An6maERPsgCziN6ppM-22" target="H5An6maERPsgCziN6ppM-23" edge="1">
          <mxGeometry relative="1" as="geometry" />
        </mxCell>
        <mxCell id="H5An6maERPsgCziN6ppM-22" value="6" style="ellipse;whiteSpace=wrap;html=1;aspect=fixed;" parent="1" vertex="1">
          <mxGeometry x="421.25" y="1075" width="15" height="15" as="geometry" />
        </mxCell>
        <mxCell id="H5An6maERPsgCziN6ppM-23" value="8" style="ellipse;whiteSpace=wrap;html=1;aspect=fixed;" parent="1" vertex="1">
          <mxGeometry x="481.25" y="1060" width="15" height="15" as="geometry" />
        </mxCell>
        <mxCell id="H5An6maERPsgCziN6ppM-24" value="9" style="ellipse;whiteSpace=wrap;html=1;aspect=fixed;" parent="1" vertex="1">
          <mxGeometry x="496.25" y="1010" width="15" height="15" as="geometry" />
        </mxCell>
        <mxCell id="H5An6maERPsgCziN6ppM-25" value="" style="endArrow=none;dashed=1;html=1;rounded=0;fontSize=12;startSize=8;endSize=8;curved=1;exitX=0.156;exitY=0.786;exitDx=0;exitDy=0;exitPerimeter=0;dashPattern=8 8;" parent="1" edge="1">
          <mxGeometry width="50" height="50" relative="1" as="geometry">
            <mxPoint x="375.97" y="1112.54" as="sourcePoint" />
            <mxPoint x="375.77" y="982.46" as="targetPoint" />
          </mxGeometry>
        </mxCell>
        <mxCell id="H5An6maERPsgCziN6ppM-26" value="" style="endArrow=none;dashed=1;html=1;rounded=0;fontSize=12;startSize=8;endSize=8;curved=1;exitX=0.156;exitY=0.786;exitDx=0;exitDy=0;exitPerimeter=0;dashPattern=8 8;" parent="1" edge="1">
          <mxGeometry width="50" height="50" relative="1" as="geometry">
            <mxPoint x="533.5300000000001" y="1112.58" as="sourcePoint" />
            <mxPoint x="533.33" y="982.5000000000001" as="targetPoint" />
          </mxGeometry>
        </mxCell>
        <mxCell id="H5An6maERPsgCziN6ppM-27" value="2" style="ellipse;whiteSpace=wrap;html=1;aspect=fixed;fillColor=#FFD966;" parent="1" vertex="1">
          <mxGeometry x="636.25" y="1040" width="15" height="15" as="geometry" />
        </mxCell>
        <mxCell id="H5An6maERPsgCziN6ppM-71" style="edgeStyle=none;curved=0;rounded=0;orthogonalLoop=1;jettySize=auto;html=1;entryX=0;entryY=0;entryDx=0;entryDy=0;fontSize=12;endArrow=classicThin;endFill=1;" parent="1" source="H5An6maERPsgCziN6ppM-29" target="H5An6maERPsgCziN6ppM-27" edge="1">
          <mxGeometry relative="1" as="geometry" />
        </mxCell>
        <mxCell id="H5An6maERPsgCziN6ppM-29" value="5" style="ellipse;whiteSpace=wrap;html=1;aspect=fixed;fillColor=#FFF2CC;" parent="1" vertex="1">
          <mxGeometry x="586.25" y="992.5" width="15" height="15" as="geometry" />
        </mxCell>
        <mxCell id="H5An6maERPsgCziN6ppM-74" style="edgeStyle=none;curved=0;rounded=0;orthogonalLoop=1;jettySize=auto;html=1;entryX=0;entryY=1;entryDx=0;entryDy=0;strokeColor=default;align=center;verticalAlign=middle;fontFamily=Helvetica;fontSize=12;fontColor=default;labelBackgroundColor=default;endArrow=classicThin;endFill=1;" parent="1" source="H5An6maERPsgCziN6ppM-30" target="H5An6maERPsgCziN6ppM-27" edge="1">
          <mxGeometry relative="1" as="geometry" />
        </mxCell>
        <mxCell id="H5An6maERPsgCziN6ppM-30" value="6" style="ellipse;whiteSpace=wrap;html=1;aspect=fixed;fillColor=#FFF2CC;" parent="1" vertex="1">
          <mxGeometry x="586.25" y="1092.5" width="15" height="15" as="geometry" />
        </mxCell>
        <mxCell id="H5An6maERPsgCziN6ppM-31" value="1" style="ellipse;whiteSpace=wrap;html=1;aspect=fixed;fillColor=#E6E6E6;" parent="1" vertex="1">
          <mxGeometry x="556.25" y="1012.5" width="15" height="15" as="geometry" />
        </mxCell>
        <mxCell id="H5An6maERPsgCziN6ppM-32" value="3" style="ellipse;whiteSpace=wrap;html=1;aspect=fixed;direction=south;fillColor=#E6E6E6;" parent="1" vertex="1">
          <mxGeometry x="556.25" y="1042.5" width="15" height="15" as="geometry" />
        </mxCell>
        <mxCell id="H5An6maERPsgCziN6ppM-33" value="4" style="ellipse;whiteSpace=wrap;html=1;aspect=fixed;fillColor=#E6E6E6;" parent="1" vertex="1">
          <mxGeometry x="556.25" y="1072.5" width="15" height="15" as="geometry" />
        </mxCell>
        <mxCell id="H5An6maERPsgCziN6ppM-37" value="" style="endArrow=none;dashed=1;html=1;rounded=0;fontSize=12;startSize=8;endSize=8;curved=0;exitX=0.156;exitY=0.786;exitDx=0;exitDy=0;exitPerimeter=0;dashPattern=8 8;" parent="1" edge="1">
          <mxGeometry width="50" height="50" relative="1" as="geometry">
            <mxPoint x="626.45" y="1112.54" as="sourcePoint" />
            <mxPoint x="626.25" y="982.4600000000002" as="targetPoint" />
          </mxGeometry>
        </mxCell>
        <mxCell id="H5An6maERPsgCziN6ppM-38" value="" style="shape=table;startSize=0;container=1;collapsible=0;childLayout=tableLayout;fillColor=#fff2cc;strokeColor=#d6b656;" parent="1" vertex="1">
          <mxGeometry x="666.25" y="1020" width="10" height="60" as="geometry" />
        </mxCell>
        <mxCell id="H5An6maERPsgCziN6ppM-41" value="" style="shape=tableRow;horizontal=0;startSize=0;swimlaneHead=0;swimlaneBody=0;strokeColor=inherit;top=0;left=0;bottom=0;right=0;collapsible=0;dropTarget=0;fillColor=none;points=[[0,0.5],[1,0.5]];portConstraint=eastwest;" parent="H5An6maERPsgCziN6ppM-38" vertex="1">
          <mxGeometry width="10" height="15" as="geometry" />
        </mxCell>
        <mxCell id="H5An6maERPsgCziN6ppM-42" value="" style="shape=partialRectangle;html=1;whiteSpace=wrap;connectable=0;strokeColor=inherit;overflow=hidden;fillColor=none;top=0;left=0;bottom=0;right=0;pointerEvents=1;" parent="H5An6maERPsgCziN6ppM-41" vertex="1">
          <mxGeometry width="10" height="15" as="geometry">
            <mxRectangle width="10" height="15" as="alternateBounds" />
          </mxGeometry>
        </mxCell>
        <mxCell id="H5An6maERPsgCziN6ppM-43" value="" style="shape=tableRow;horizontal=0;startSize=0;swimlaneHead=0;swimlaneBody=0;strokeColor=inherit;top=0;left=0;bottom=0;right=0;collapsible=0;dropTarget=0;fillColor=none;points=[[0,0.5],[1,0.5]];portConstraint=eastwest;" parent="H5An6maERPsgCziN6ppM-38" vertex="1">
          <mxGeometry y="15" width="10" height="15" as="geometry" />
        </mxCell>
        <mxCell id="H5An6maERPsgCziN6ppM-44" value="" style="shape=partialRectangle;html=1;whiteSpace=wrap;connectable=0;strokeColor=inherit;overflow=hidden;fillColor=none;top=0;left=0;bottom=0;right=0;pointerEvents=1;" parent="H5An6maERPsgCziN6ppM-43" vertex="1">
          <mxGeometry width="10" height="15" as="geometry">
            <mxRectangle width="10" height="15" as="alternateBounds" />
          </mxGeometry>
        </mxCell>
        <mxCell id="H5An6maERPsgCziN6ppM-45" value="" style="shape=tableRow;horizontal=0;startSize=0;swimlaneHead=0;swimlaneBody=0;strokeColor=inherit;top=0;left=0;bottom=0;right=0;collapsible=0;dropTarget=0;fillColor=none;points=[[0,0.5],[1,0.5]];portConstraint=eastwest;" parent="H5An6maERPsgCziN6ppM-38" vertex="1">
          <mxGeometry y="30" width="10" height="15" as="geometry" />
        </mxCell>
        <mxCell id="H5An6maERPsgCziN6ppM-46" value="" style="shape=partialRectangle;html=1;whiteSpace=wrap;connectable=0;strokeColor=inherit;overflow=hidden;fillColor=none;top=0;left=0;bottom=0;right=0;pointerEvents=1;" parent="H5An6maERPsgCziN6ppM-45" vertex="1">
          <mxGeometry width="10" height="15" as="geometry">
            <mxRectangle width="10" height="15" as="alternateBounds" />
          </mxGeometry>
        </mxCell>
        <mxCell id="H5An6maERPsgCziN6ppM-39" value="" style="shape=tableRow;horizontal=0;startSize=0;swimlaneHead=0;swimlaneBody=0;strokeColor=inherit;top=0;left=0;bottom=0;right=0;collapsible=0;dropTarget=0;fillColor=none;points=[[0,0.5],[1,0.5]];portConstraint=eastwest;" parent="H5An6maERPsgCziN6ppM-38" vertex="1">
          <mxGeometry y="45" width="10" height="15" as="geometry" />
        </mxCell>
        <mxCell id="H5An6maERPsgCziN6ppM-40" value="" style="shape=partialRectangle;html=1;whiteSpace=wrap;connectable=0;strokeColor=inherit;overflow=hidden;fillColor=none;top=0;left=0;bottom=0;right=0;pointerEvents=1;" parent="H5An6maERPsgCziN6ppM-39" vertex="1">
          <mxGeometry width="10" height="15" as="geometry">
            <mxRectangle width="10" height="15" as="alternateBounds" />
          </mxGeometry>
        </mxCell>
        <mxCell id="H5An6maERPsgCziN6ppM-48" value="" style="endArrow=none;dashed=1;html=1;rounded=0;fontSize=12;startSize=8;endSize=8;curved=1;exitX=0.156;exitY=0.786;exitDx=0;exitDy=0;exitPerimeter=0;dashPattern=8 8;" parent="1" edge="1">
          <mxGeometry width="50" height="50" relative="1" as="geometry">
            <mxPoint x="696.45" y="1112.54" as="sourcePoint" />
            <mxPoint x="696.25" y="982.46" as="targetPoint" />
          </mxGeometry>
        </mxCell>
        <mxCell id="H5An6maERPsgCziN6ppM-84" style="edgeStyle=none;curved=0;rounded=0;orthogonalLoop=1;jettySize=auto;html=1;entryX=0;entryY=0;entryDx=0;entryDy=0;opacity=70;strokeColor=default;align=center;verticalAlign=middle;fontFamily=Helvetica;fontSize=12;fontColor=default;labelBackgroundColor=default;endArrow=openThin;endFill=0;" parent="1" source="H5An6maERPsgCziN6ppM-49" target="H5An6maERPsgCziN6ppM-58" edge="1">
          <mxGeometry relative="1" as="geometry" />
        </mxCell>
        <mxCell id="H5An6maERPsgCziN6ppM-90" style="edgeStyle=none;curved=0;rounded=0;orthogonalLoop=1;jettySize=auto;html=1;entryX=0;entryY=0;entryDx=0;entryDy=0;opacity=70;strokeColor=default;align=center;verticalAlign=middle;fontFamily=Helvetica;fontSize=12;fontColor=default;labelBackgroundColor=default;endArrow=openThin;endFill=0;" parent="1" source="H5An6maERPsgCziN6ppM-49" target="H5An6maERPsgCziN6ppM-59" edge="1">
          <mxGeometry relative="1" as="geometry" />
        </mxCell>
        <mxCell id="H5An6maERPsgCziN6ppM-95" style="edgeStyle=none;curved=0;rounded=0;orthogonalLoop=1;jettySize=auto;html=1;entryX=0;entryY=0;entryDx=0;entryDy=0;opacity=70;strokeColor=default;align=center;verticalAlign=middle;fontFamily=Helvetica;fontSize=12;fontColor=default;labelBackgroundColor=default;endArrow=openThin;endFill=0;" parent="1" source="H5An6maERPsgCziN6ppM-49" target="H5An6maERPsgCziN6ppM-60" edge="1">
          <mxGeometry relative="1" as="geometry" />
        </mxCell>
        <mxCell id="H5An6maERPsgCziN6ppM-49" value="" style="ellipse;whiteSpace=wrap;html=1;aspect=fixed;" parent="1" vertex="1">
          <mxGeometry x="706.25" y="1020" width="10" height="10" as="geometry" />
        </mxCell>
        <mxCell id="H5An6maERPsgCziN6ppM-85" style="edgeStyle=none;curved=0;rounded=0;orthogonalLoop=1;jettySize=auto;html=1;entryX=0;entryY=0;entryDx=0;entryDy=0;opacity=70;strokeColor=default;align=center;verticalAlign=middle;fontFamily=Helvetica;fontSize=12;fontColor=default;labelBackgroundColor=default;endArrow=openThin;endFill=0;" parent="1" source="H5An6maERPsgCziN6ppM-50" target="H5An6maERPsgCziN6ppM-58" edge="1">
          <mxGeometry relative="1" as="geometry" />
        </mxCell>
        <mxCell id="H5An6maERPsgCziN6ppM-92" style="edgeStyle=none;curved=0;rounded=0;orthogonalLoop=1;jettySize=auto;html=1;entryX=0;entryY=0;entryDx=0;entryDy=0;opacity=70;strokeColor=default;align=center;verticalAlign=middle;fontFamily=Helvetica;fontSize=12;fontColor=default;labelBackgroundColor=default;endArrow=openThin;endFill=0;" parent="1" source="H5An6maERPsgCziN6ppM-50" target="H5An6maERPsgCziN6ppM-59" edge="1">
          <mxGeometry relative="1" as="geometry" />
        </mxCell>
        <mxCell id="H5An6maERPsgCziN6ppM-96" style="edgeStyle=none;curved=0;rounded=0;orthogonalLoop=1;jettySize=auto;html=1;entryX=0;entryY=0;entryDx=0;entryDy=0;opacity=70;strokeColor=default;align=center;verticalAlign=middle;fontFamily=Helvetica;fontSize=12;fontColor=default;labelBackgroundColor=default;endArrow=openThin;endFill=0;" parent="1" source="H5An6maERPsgCziN6ppM-50" target="H5An6maERPsgCziN6ppM-60" edge="1">
          <mxGeometry relative="1" as="geometry" />
        </mxCell>
        <mxCell id="H5An6maERPsgCziN6ppM-50" value="" style="ellipse;whiteSpace=wrap;html=1;aspect=fixed;" parent="1" vertex="1">
          <mxGeometry x="706.25" y="1035" width="10" height="10" as="geometry" />
        </mxCell>
        <mxCell id="H5An6maERPsgCziN6ppM-87" style="edgeStyle=none;curved=0;rounded=0;orthogonalLoop=1;jettySize=auto;html=1;opacity=70;strokeColor=default;align=center;verticalAlign=middle;fontFamily=Helvetica;fontSize=12;fontColor=default;labelBackgroundColor=default;endArrow=openThin;endFill=0;entryX=0;entryY=0.5;entryDx=0;entryDy=0;" parent="1" source="H5An6maERPsgCziN6ppM-51" target="H5An6maERPsgCziN6ppM-58" edge="1">
          <mxGeometry relative="1" as="geometry">
            <mxPoint x="726.25" y="1032.5" as="targetPoint" />
          </mxGeometry>
        </mxCell>
        <mxCell id="H5An6maERPsgCziN6ppM-93" style="edgeStyle=none;curved=0;rounded=0;orthogonalLoop=1;jettySize=auto;html=1;entryX=0;entryY=0;entryDx=0;entryDy=0;opacity=70;strokeColor=default;align=center;verticalAlign=middle;fontFamily=Helvetica;fontSize=12;fontColor=default;labelBackgroundColor=default;endArrow=openThin;endFill=0;" parent="1" source="H5An6maERPsgCziN6ppM-51" target="H5An6maERPsgCziN6ppM-59" edge="1">
          <mxGeometry relative="1" as="geometry" />
        </mxCell>
        <mxCell id="H5An6maERPsgCziN6ppM-97" style="edgeStyle=none;curved=0;rounded=0;orthogonalLoop=1;jettySize=auto;html=1;entryX=0;entryY=0;entryDx=0;entryDy=0;opacity=70;strokeColor=default;align=center;verticalAlign=middle;fontFamily=Helvetica;fontSize=12;fontColor=default;labelBackgroundColor=default;endArrow=openThin;endFill=0;" parent="1" source="H5An6maERPsgCziN6ppM-51" target="H5An6maERPsgCziN6ppM-60" edge="1">
          <mxGeometry relative="1" as="geometry" />
        </mxCell>
        <mxCell id="H5An6maERPsgCziN6ppM-51" value="" style="ellipse;whiteSpace=wrap;html=1;aspect=fixed;" parent="1" vertex="1">
          <mxGeometry x="706.25" y="1050" width="10" height="10" as="geometry" />
        </mxCell>
        <mxCell id="H5An6maERPsgCziN6ppM-88" style="edgeStyle=none;curved=0;rounded=0;orthogonalLoop=1;jettySize=auto;html=1;opacity=70;strokeColor=default;align=center;verticalAlign=middle;fontFamily=Helvetica;fontSize=12;fontColor=default;labelBackgroundColor=default;endArrow=openThin;endFill=0;entryX=0;entryY=0;entryDx=0;entryDy=0;" parent="1" source="H5An6maERPsgCziN6ppM-52" target="H5An6maERPsgCziN6ppM-58" edge="1">
          <mxGeometry relative="1" as="geometry">
            <mxPoint x="726.25" y="1032.5" as="targetPoint" />
          </mxGeometry>
        </mxCell>
        <mxCell id="H5An6maERPsgCziN6ppM-94" style="edgeStyle=none;curved=0;rounded=0;orthogonalLoop=1;jettySize=auto;html=1;entryX=0;entryY=0.5;entryDx=0;entryDy=0;opacity=70;strokeColor=default;align=center;verticalAlign=middle;fontFamily=Helvetica;fontSize=12;fontColor=default;labelBackgroundColor=default;endArrow=openThin;endFill=0;" parent="1" source="H5An6maERPsgCziN6ppM-52" target="H5An6maERPsgCziN6ppM-59" edge="1">
          <mxGeometry relative="1" as="geometry" />
        </mxCell>
        <mxCell id="H5An6maERPsgCziN6ppM-98" style="edgeStyle=none;curved=0;rounded=0;orthogonalLoop=1;jettySize=auto;html=1;entryX=0;entryY=0;entryDx=0;entryDy=0;opacity=70;strokeColor=default;align=center;verticalAlign=middle;fontFamily=Helvetica;fontSize=12;fontColor=default;labelBackgroundColor=default;endArrow=openThin;endFill=0;" parent="1" source="H5An6maERPsgCziN6ppM-52" target="H5An6maERPsgCziN6ppM-60" edge="1">
          <mxGeometry relative="1" as="geometry" />
        </mxCell>
        <mxCell id="H5An6maERPsgCziN6ppM-52" value="" style="ellipse;whiteSpace=wrap;html=1;aspect=fixed;" parent="1" vertex="1">
          <mxGeometry x="706.25" y="1065" width="10" height="10" as="geometry" />
        </mxCell>
        <mxCell id="H5An6maERPsgCziN6ppM-58" value="" style="ellipse;whiteSpace=wrap;html=1;aspect=fixed;" parent="1" vertex="1">
          <mxGeometry x="736.25" y="1030" width="10" height="10" as="geometry" />
        </mxCell>
        <mxCell id="H5An6maERPsgCziN6ppM-103" style="edgeStyle=none;curved=0;rounded=0;orthogonalLoop=1;jettySize=auto;html=1;entryX=0;entryY=0.5;entryDx=0;entryDy=0;opacity=70;strokeColor=default;align=center;verticalAlign=middle;fontFamily=Helvetica;fontSize=12;fontColor=default;labelBackgroundColor=default;endArrow=openThin;endFill=0;" parent="1" source="H5An6maERPsgCziN6ppM-59" target="H5An6maERPsgCziN6ppM-64" edge="1">
          <mxGeometry relative="1" as="geometry" />
        </mxCell>
        <mxCell id="H5An6maERPsgCziN6ppM-59" value="" style="ellipse;whiteSpace=wrap;html=1;aspect=fixed;" parent="1" vertex="1">
          <mxGeometry x="736.25" y="1045" width="10" height="10" as="geometry" />
        </mxCell>
        <mxCell id="H5An6maERPsgCziN6ppM-104" style="edgeStyle=none;curved=0;rounded=0;orthogonalLoop=1;jettySize=auto;html=1;entryX=0;entryY=0.5;entryDx=0;entryDy=0;opacity=70;strokeColor=default;align=center;verticalAlign=middle;fontFamily=Helvetica;fontSize=12;fontColor=default;labelBackgroundColor=default;endArrow=openThin;endFill=0;" parent="1" source="H5An6maERPsgCziN6ppM-60" target="H5An6maERPsgCziN6ppM-66" edge="1">
          <mxGeometry relative="1" as="geometry" />
        </mxCell>
        <mxCell id="H5An6maERPsgCziN6ppM-60" value="" style="ellipse;whiteSpace=wrap;html=1;aspect=fixed;" parent="1" vertex="1">
          <mxGeometry x="736.25" y="1060" width="10" height="10" as="geometry" />
        </mxCell>
        <mxCell id="H5An6maERPsgCziN6ppM-61" value="" style="shape=table;startSize=0;container=1;collapsible=0;childLayout=tableLayout;fillColor=#fff2cc;strokeColor=#d6b656;" parent="1" vertex="1">
          <mxGeometry x="766.25" y="1025" width="10" height="45" as="geometry" />
        </mxCell>
        <mxCell id="H5An6maERPsgCziN6ppM-62" value="" style="shape=tableRow;horizontal=0;startSize=0;swimlaneHead=0;swimlaneBody=0;strokeColor=inherit;top=0;left=0;bottom=0;right=0;collapsible=0;dropTarget=0;fillColor=none;points=[[0,0.5],[1,0.5]];portConstraint=eastwest;" parent="H5An6maERPsgCziN6ppM-61" vertex="1">
          <mxGeometry width="10" height="15" as="geometry" />
        </mxCell>
        <mxCell id="H5An6maERPsgCziN6ppM-63" value="" style="shape=partialRectangle;html=1;whiteSpace=wrap;connectable=0;strokeColor=inherit;overflow=hidden;fillColor=none;top=0;left=0;bottom=0;right=0;pointerEvents=1;" parent="H5An6maERPsgCziN6ppM-62" vertex="1">
          <mxGeometry width="10" height="15" as="geometry">
            <mxRectangle width="10" height="15" as="alternateBounds" />
          </mxGeometry>
        </mxCell>
        <mxCell id="H5An6maERPsgCziN6ppM-64" value="" style="shape=tableRow;horizontal=0;startSize=0;swimlaneHead=0;swimlaneBody=0;strokeColor=inherit;top=0;left=0;bottom=0;right=0;collapsible=0;dropTarget=0;fillColor=none;points=[[0,0.5],[1,0.5]];portConstraint=eastwest;" parent="H5An6maERPsgCziN6ppM-61" vertex="1">
          <mxGeometry y="15" width="10" height="15" as="geometry" />
        </mxCell>
        <mxCell id="H5An6maERPsgCziN6ppM-65" value="" style="shape=partialRectangle;html=1;whiteSpace=wrap;connectable=0;strokeColor=inherit;overflow=hidden;fillColor=none;top=0;left=0;bottom=0;right=0;pointerEvents=1;" parent="H5An6maERPsgCziN6ppM-64" vertex="1">
          <mxGeometry width="10" height="15" as="geometry">
            <mxRectangle width="10" height="15" as="alternateBounds" />
          </mxGeometry>
        </mxCell>
        <mxCell id="H5An6maERPsgCziN6ppM-66" value="" style="shape=tableRow;horizontal=0;startSize=0;swimlaneHead=0;swimlaneBody=0;strokeColor=inherit;top=0;left=0;bottom=0;right=0;collapsible=0;dropTarget=0;fillColor=none;points=[[0,0.5],[1,0.5]];portConstraint=eastwest;" parent="H5An6maERPsgCziN6ppM-61" vertex="1">
          <mxGeometry y="30" width="10" height="15" as="geometry" />
        </mxCell>
        <mxCell id="H5An6maERPsgCziN6ppM-67" value="" style="shape=partialRectangle;html=1;whiteSpace=wrap;connectable=0;strokeColor=inherit;overflow=hidden;fillColor=none;top=0;left=0;bottom=0;right=0;pointerEvents=1;" parent="H5An6maERPsgCziN6ppM-66" vertex="1">
          <mxGeometry width="10" height="15" as="geometry">
            <mxRectangle width="10" height="15" as="alternateBounds" />
          </mxGeometry>
        </mxCell>
        <mxCell id="H5An6maERPsgCziN6ppM-105" style="edgeStyle=none;curved=0;rounded=0;orthogonalLoop=1;jettySize=auto;html=1;entryX=1;entryY=0.5;entryDx=0;entryDy=0;opacity=70;strokeColor=default;align=center;verticalAlign=middle;fontFamily=Helvetica;fontSize=12;fontColor=default;labelBackgroundColor=default;endArrow=openThin;endFill=0;" parent="1" source="H5An6maERPsgCziN6ppM-70" target="H5An6maERPsgCziN6ppM-62" edge="1">
          <mxGeometry relative="1" as="geometry" />
        </mxCell>
        <mxCell id="H5An6maERPsgCziN6ppM-106" style="edgeStyle=none;curved=0;rounded=0;orthogonalLoop=1;jettySize=auto;html=1;entryX=1;entryY=0.5;entryDx=0;entryDy=0;opacity=70;strokeColor=default;align=center;verticalAlign=middle;fontFamily=Helvetica;fontSize=12;fontColor=default;labelBackgroundColor=default;endArrow=openThin;endFill=0;" parent="1" source="H5An6maERPsgCziN6ppM-70" target="H5An6maERPsgCziN6ppM-64" edge="1">
          <mxGeometry relative="1" as="geometry" />
        </mxCell>
        <mxCell id="H5An6maERPsgCziN6ppM-107" style="edgeStyle=none;curved=0;rounded=0;orthogonalLoop=1;jettySize=auto;html=1;entryX=1;entryY=0.5;entryDx=0;entryDy=0;opacity=70;strokeColor=default;align=center;verticalAlign=middle;fontFamily=Helvetica;fontSize=12;fontColor=default;labelBackgroundColor=default;endArrow=openThin;endFill=0;" parent="1" source="H5An6maERPsgCziN6ppM-70" target="H5An6maERPsgCziN6ppM-66" edge="1">
          <mxGeometry relative="1" as="geometry" />
        </mxCell>
        <mxCell id="H5An6maERPsgCziN6ppM-70" value="2" style="ellipse;whiteSpace=wrap;html=1;aspect=fixed;" parent="1" vertex="1">
          <mxGeometry x="793.25" y="1040" width="15" height="15" as="geometry" />
        </mxCell>
        <mxCell id="H5An6maERPsgCziN6ppM-75" value="" style="endArrow=none;dashed=1;html=1;rounded=0;strokeColor=default;align=center;verticalAlign=middle;fontFamily=Helvetica;fontSize=12;fontColor=default;labelBackgroundColor=default;edgeStyle=none;curved=0;entryX=0;entryY=0.5;entryDx=0;entryDy=0;exitX=1;exitY=0;exitDx=0;exitDy=0;dashPattern=1 1;" parent="1" source="H5An6maERPsgCziN6ppM-27" target="H5An6maERPsgCziN6ppM-41" edge="1">
          <mxGeometry width="50" height="50" relative="1" as="geometry">
            <mxPoint x="638.7500000000076" y="1042.5" as="sourcePoint" />
            <mxPoint x="703.75" y="1040" as="targetPoint" />
          </mxGeometry>
        </mxCell>
        <mxCell id="H5An6maERPsgCziN6ppM-76" value="" style="endArrow=none;dashed=1;html=1;rounded=0;strokeColor=default;align=center;verticalAlign=middle;fontFamily=Helvetica;fontSize=12;fontColor=default;labelBackgroundColor=default;edgeStyle=none;curved=0;entryX=0;entryY=0.5;entryDx=0;entryDy=0;exitX=1;exitY=0.5;exitDx=0;exitDy=0;dashPattern=1 1;" parent="1" source="H5An6maERPsgCziN6ppM-27" target="H5An6maERPsgCziN6ppM-43" edge="1">
          <mxGeometry width="50" height="50" relative="1" as="geometry">
            <mxPoint x="656.25" y="1072.5" as="sourcePoint" />
            <mxPoint x="673.25" y="1057.5" as="targetPoint" />
          </mxGeometry>
        </mxCell>
        <mxCell id="H5An6maERPsgCziN6ppM-77" value="" style="endArrow=none;dashed=1;html=1;rounded=0;strokeColor=default;align=center;verticalAlign=middle;fontFamily=Helvetica;fontSize=12;fontColor=default;labelBackgroundColor=default;edgeStyle=none;curved=0;entryX=0;entryY=0.5;entryDx=0;entryDy=0;dashPattern=1 1;exitX=1;exitY=0.5;exitDx=0;exitDy=0;" parent="1" source="H5An6maERPsgCziN6ppM-27" target="H5An6maERPsgCziN6ppM-45" edge="1">
          <mxGeometry width="50" height="50" relative="1" as="geometry">
            <mxPoint x="656.25" y="1052.5" as="sourcePoint" />
            <mxPoint x="673.25" y="1067.5" as="targetPoint" />
          </mxGeometry>
        </mxCell>
        <mxCell id="H5An6maERPsgCziN6ppM-78" value="" style="endArrow=none;dashed=1;html=1;rounded=0;strokeColor=default;align=center;verticalAlign=middle;fontFamily=Helvetica;fontSize=12;fontColor=default;labelBackgroundColor=default;edgeStyle=none;curved=0;entryX=0;entryY=0.5;entryDx=0;entryDy=0;exitX=1;exitY=1;exitDx=0;exitDy=0;dashPattern=1 1;" parent="1" source="H5An6maERPsgCziN6ppM-27" target="H5An6maERPsgCziN6ppM-39" edge="1">
          <mxGeometry width="50" height="50" relative="1" as="geometry">
            <mxPoint x="656.25" y="1072.5" as="sourcePoint" />
            <mxPoint x="673.25" y="1057.5" as="targetPoint" />
          </mxGeometry>
        </mxCell>
        <mxCell id="H5An6maERPsgCziN6ppM-79" style="edgeStyle=none;curved=0;rounded=0;orthogonalLoop=1;jettySize=auto;html=1;exitX=1;exitY=0.5;exitDx=0;exitDy=0;entryX=0;entryY=0.5;entryDx=0;entryDy=0;strokeColor=default;align=center;verticalAlign=middle;fontFamily=Helvetica;fontSize=12;fontColor=default;labelBackgroundColor=default;endArrow=openThin;endFill=0;opacity=70;" parent="1" source="H5An6maERPsgCziN6ppM-41" target="H5An6maERPsgCziN6ppM-49" edge="1">
          <mxGeometry relative="1" as="geometry" />
        </mxCell>
        <mxCell id="H5An6maERPsgCziN6ppM-80" style="edgeStyle=none;curved=0;rounded=0;orthogonalLoop=1;jettySize=auto;html=1;entryX=0;entryY=0.5;entryDx=0;entryDy=0;opacity=70;strokeColor=default;align=center;verticalAlign=middle;fontFamily=Helvetica;fontSize=12;fontColor=default;labelBackgroundColor=default;endArrow=openThin;endFill=0;" parent="1" source="H5An6maERPsgCziN6ppM-43" target="H5An6maERPsgCziN6ppM-50" edge="1">
          <mxGeometry relative="1" as="geometry" />
        </mxCell>
        <mxCell id="H5An6maERPsgCziN6ppM-82" style="edgeStyle=none;curved=0;rounded=0;orthogonalLoop=1;jettySize=auto;html=1;opacity=70;strokeColor=default;align=center;verticalAlign=middle;fontFamily=Helvetica;fontSize=12;fontColor=default;labelBackgroundColor=default;endArrow=openThin;endFill=0;" parent="1" source="H5An6maERPsgCziN6ppM-45" edge="1">
          <mxGeometry relative="1" as="geometry">
            <mxPoint x="706.25" y="1055.5" as="targetPoint" />
          </mxGeometry>
        </mxCell>
        <mxCell id="H5An6maERPsgCziN6ppM-83" style="edgeStyle=none;curved=0;rounded=0;orthogonalLoop=1;jettySize=auto;html=1;entryX=0;entryY=0.5;entryDx=0;entryDy=0;opacity=70;strokeColor=default;align=center;verticalAlign=middle;fontFamily=Helvetica;fontSize=12;fontColor=default;labelBackgroundColor=default;endArrow=openThin;endFill=0;" parent="1" source="H5An6maERPsgCziN6ppM-39" target="H5An6maERPsgCziN6ppM-52" edge="1">
          <mxGeometry relative="1" as="geometry" />
        </mxCell>
        <mxCell id="H5An6maERPsgCziN6ppM-99" style="edgeStyle=none;curved=0;rounded=0;orthogonalLoop=1;jettySize=auto;html=1;opacity=70;strokeColor=default;align=center;verticalAlign=middle;fontFamily=Helvetica;fontSize=12;fontColor=default;labelBackgroundColor=default;endArrow=openThin;endFill=0;" parent="1" source="H5An6maERPsgCziN6ppM-58" edge="1">
          <mxGeometry relative="1" as="geometry">
            <mxPoint x="766.25" y="1035.5" as="targetPoint" />
          </mxGeometry>
        </mxCell>
        <mxCell id="H5An6maERPsgCziN6ppM-109" value="" style="endArrow=none;dashed=1;html=1;dashPattern=1 3;strokeWidth=2;rounded=0;opacity=70;strokeColor=default;align=center;verticalAlign=middle;fontFamily=Helvetica;fontSize=12;fontColor=default;labelBackgroundColor=default;edgeStyle=none;curved=0;entryX=0;entryY=0.5;entryDx=0;entryDy=0;exitX=0.5;exitY=0;exitDx=0;exitDy=0;" parent="1" source="H5An6maERPsgCziN6ppM-32" target="H5An6maERPsgCziN6ppM-27" edge="1">
          <mxGeometry width="50" height="50" relative="1" as="geometry">
            <mxPoint x="556.25" y="1062.5" as="sourcePoint" />
            <mxPoint x="606.25" y="1012.5" as="targetPoint" />
          </mxGeometry>
        </mxCell>
        <mxCell id="H5An6maERPsgCziN6ppM-110" value="" style="endArrow=none;dashed=1;html=1;dashPattern=1 3;strokeWidth=2;rounded=0;opacity=70;strokeColor=default;align=center;verticalAlign=middle;fontFamily=Helvetica;fontSize=12;fontColor=default;labelBackgroundColor=default;edgeStyle=none;curved=0;exitX=1;exitY=0.5;exitDx=0;exitDy=0;" parent="1" source="H5An6maERPsgCziN6ppM-31" edge="1">
          <mxGeometry width="50" height="50" relative="1" as="geometry">
            <mxPoint x="556.25" y="1062.5" as="sourcePoint" />
            <mxPoint x="636.25" y="1042.5" as="targetPoint" />
          </mxGeometry>
        </mxCell>
        <mxCell id="H5An6maERPsgCziN6ppM-111" value="" style="endArrow=none;dashed=1;html=1;dashPattern=1 3;strokeWidth=2;rounded=0;opacity=70;strokeColor=default;align=center;verticalAlign=middle;fontFamily=Helvetica;fontSize=12;fontColor=default;labelBackgroundColor=default;edgeStyle=none;curved=0;exitX=1;exitY=0;exitDx=0;exitDy=0;entryX=0;entryY=0.5;entryDx=0;entryDy=0;" parent="1" source="H5An6maERPsgCziN6ppM-33" target="H5An6maERPsgCziN6ppM-27" edge="1">
          <mxGeometry width="50" height="50" relative="1" as="geometry">
            <mxPoint x="576.25" y="1092.5" as="sourcePoint" />
            <mxPoint x="626.25" y="1042.5" as="targetPoint" />
          </mxGeometry>
        </mxCell>
        <mxCell id="H5An6maERPsgCziN6ppM-112" value="" style="endArrow=none;dashed=1;html=1;rounded=0;fontSize=12;startSize=8;endSize=8;curved=1;exitX=0.156;exitY=0.786;exitDx=0;exitDy=0;exitPerimeter=0;dashPattern=8 8;" parent="1" edge="1">
          <mxGeometry width="50" height="50" relative="1" as="geometry">
            <mxPoint x="816.25" y="1112.54" as="sourcePoint" />
            <mxPoint x="816.05" y="982.46" as="targetPoint" />
          </mxGeometry>
        </mxCell>
        <mxCell id="H5An6maERPsgCziN6ppM-113" value="输入" style="text;html=1;align=center;verticalAlign=middle;whiteSpace=wrap;rounded=0;fontSize=12;fontFamily=Helvetica;fontColor=default;labelBackgroundColor=default;" parent="1" vertex="1">
          <mxGeometry x="413.75" y="1107.5" width="60" height="30" as="geometry" />
        </mxCell>
        <mxCell id="H5An6maERPsgCziN6ppM-114" value="采样" style="text;html=1;align=center;verticalAlign=middle;whiteSpace=wrap;rounded=0;fontSize=12;fontFamily=Helvetica;fontColor=default;labelBackgroundColor=default;" parent="1" vertex="1">
          <mxGeometry x="556.25" y="1107.5" width="60" height="30" as="geometry" />
        </mxCell>
        <mxCell id="H5An6maERPsgCziN6ppM-115" value="聚合" style="text;html=1;align=center;verticalAlign=middle;whiteSpace=wrap;rounded=0;fontSize=12;fontFamily=Helvetica;fontColor=default;labelBackgroundColor=default;" parent="1" vertex="1">
          <mxGeometry x="641.25" y="1107.5" width="60" height="30" as="geometry" />
        </mxCell>
        <mxCell id="H5An6maERPsgCziN6ppM-116" value="更新" style="text;html=1;align=center;verticalAlign=middle;whiteSpace=wrap;rounded=0;fontSize=12;fontFamily=Helvetica;fontColor=default;labelBackgroundColor=default;" parent="1" vertex="1">
          <mxGeometry x="733.25" y="1107.5" width="60" height="30" as="geometry" />
        </mxCell>
      </root>
    </mxGraphModel>
  </diagram>
</mxfile>
